<?xml version="1.0" encoding="utf-8"?>
<!-- Generator: Adobe Illustrator 19.1.0, SVG Export Plug-In . SVG Version: 6.00 Build 0)  -->
<svg version="1.1" id="Layer_1" xmlns="http://www.w3.org/2000/svg" xmlns:xlink="http://www.w3.org/1999/xlink" x="0px" y="0px"
	 viewBox="0 0 63 63" style="enable-background:new 0 0 63 63;" xml:space="preserve">
<style type="text/css">
	.st0{fill:#0C96D4;}
	.st1{stroke:#000000;stroke-miterlimit:10;}
	.st2{fill:none;stroke:#FFFFFF;stroke-width:1.5;stroke-miterlimit:10;}
</style>
<circle class="st0" cx="31.5" cy="31.5" r="31.5"/>
<path d="M42,58.4l-3.7-15.9c0,0-1.1-2.4-3.3-1.6c0,0-2.2,0.9-1.7,3.2L42,58.4z"/>
<path d="M46.7,15.8l-5.2,3.7c0,0-0.7,0.7-0.1,1.4c0,0,0.6,0.7,1.4,0.1L46.7,15.8z"/>
<path d="M46,47.7l-3.3-5.5c0,0-0.7-0.8-1.4-0.2c0,0-0.7,0.6-0.2,1.4L46,47.7z"/>
<path d="M57.9,43.4l-13.9-8.7c0,0-2.4-0.9-3.5,1.2c0,0-0.9,2.2,1.1,3.4L57.9,43.4z"/>
<path d="M57.8,20.4l-13.8,8c0,0-2.4,0.9-3.5-1.2c0,0-0.9-2.1,1.1-3.3L57.8,20.4z"/>
<path d="M43.1,5.5l-8.8,13.1c0,0-1,2.3,1.1,3.4c0,0,2.1,1,3.4-0.9L43.1,5.5z"/>
<path d="M20.2,58.4l3.7-15.9c0,0,1.1-2.4,3.3-1.6c0,0,2.2,0.9,1.7,3.2L20.2,58.4z"/>
<path d="M15.9,15.8l5.2,3.7c0,0,0.7,0.7,0.1,1.4c0,0-0.6,0.7-1.4,0.1L15.9,15.8z"/>
<path d="M16.7,47.7l3.3-5.5c0,0,0.7-0.8,1.4-0.2c0,0,0.7,0.6,0.2,1.4L16.7,47.7z"/>
<path d="M4.7,43.4l13.9-8.7c0,0,2.4-0.9,3.5,1.2c0,0,0.9,2.2-1.1,3.4L4.7,43.4z"/>
<path d="M4.8,20.4l13.8,8c0,0,2.4,0.9,3.5-1.2c0,0,0.9-2.1-1.1-3.3L4.8,20.4z"/>
<path d="M19.6,5.5l8.8,13.1c0,0,1,2.3-1.1,3.4c0,0-2.1,1-3.4-0.9L19.6,5.5z"/>
<circle class="st1" cx="31.1" cy="31.8" r="6.8"/>
<g>
	<line class="st2" x1="31.1" y1="15.8" x2="31.1" y2="47.7"/>
	<line class="st2" x1="3.5" y1="31.8" x2="59" y2="31.8"/>
	<path class="st2" d="M34.1,31.6c0,0,1.8-7.7,13.3-7.6"/>
</g>
<path class="st2" d="M34.1,31.9c0,0,1.8,7.7,13.3,7.6"/>
<path class="st2" d="M27.9,31.9c0,0-1.8,7.7-13.3,7.6"/>
<path class="st2" d="M27.9,31.6c0,0-1.8-7.7-13.3-7.6"/>
</svg>
